<?xml version="1.0" encoding="utf-8"?>
<!-- Generator: Adobe Illustrator 22.0.1, SVG Export Plug-In . SVG Version: 6.00 Build 0)  -->
<svg version="1.1" id="Слой_1" xmlns="http://www.w3.org/2000/svg" xmlns:xlink="http://www.w3.org/1999/xlink" x="0px" y="0px"
	 viewBox="0 0 384 384" style="enable-background:new 0 0 384 384;" xml:space="preserve">
<style type="text/css">
	.st0{fill:#0032A0;}
</style>
<path class="st0" d="M336,80V64c0-26.5-21.5-48-48-48H48C21.5,16,0,37.5,0,64v256c0,26.5,21.5,48,48,48h288c26.5,0,48-21.5,48-48
	V128C384,101.5,362.5,80,336,80z M48,48h240c8.8,0,16,7.2,16,16v16H48c-8.8,0-16-7.2-16-16S39.2,48,48,48z M336,336H48
	c-8.8,0-16-7.2-16-16V109.3c5,1.8,10.4,2.7,16,2.7h288c8.8,0,16,7.2,16,16v40h-88c-30.9,0-56,25.1-56,56s25.1,56,56,56h88v40
	C352,328.8,344.8,336,336,336z M352,248h-37.4c3.5-7.4,5.4-15.6,5.4-24c0-8.6-2-16.7-5.5-24H352V248z M240,224c0-13.2,10.8-24,24-24
	s24,10.8,24,24c0,6.4-2.5,12.5-6.9,16.9c-4.6,4.6-10.7,7.1-17.1,7.1C250.8,248,240,237.2,240,224z"/>
</svg>
